<svg xmlns="http://www.w3.org/2000/svg" xmlns:svg="http://www.w3.org/2000/svg" xmlns:xlink="http://www.w3.org/1999/xlink" id="svg1" width="266.667" height="266.667"><metadata id="metadata3"/><defs id="defs3"><linearGradient id="linearGradient856"><stop id="stop857" offset="0" stop-color="#fff" stop-opacity=".5"/><stop id="stop858" offset="1" stop-color="#fff" stop-opacity=".25"/></linearGradient><linearGradient id="linearGradient859" x1="-33.386" x2="77.099" y1="142.851" y2="160.546" gradientTransform="scale(0.7929127,1.2611729)" gradientUnits="userSpaceOnUse" xlink:href="#linearGradient856"/><linearGradient id="linearGradient2396" x1="-33.386" x2="77.099" y1="142.851" y2="160.546" gradientTransform="matrix(0.7929127,0,0,1.2611729,-5.75,-6)" gradientUnits="userSpaceOnUse" xlink:href="#linearGradient856"/><linearGradient id="linearGradient2399" x1="66.799" x2="177.284" y1="78.139" y2="95.834" gradientTransform="matrix(0.7929126,0,0,1.261173,-5.75,-6)" gradientUnits="userSpaceOnUse" xlink:href="#linearGradient856"/><linearGradient id="linearGradient2402" x1="-75.94" x2="34.545" y1="59.156" y2="76.851" gradientTransform="matrix(0.7929127,0,0,1.2611729,-5.75,-6)" gradientUnits="userSpaceOnUse" xlink:href="#linearGradient856"/><filter id="filter3256"><feGaussianBlur id="feGaussianBlur3258" stdDeviation="4.109"/></filter></defs><g id="g3183" filter="url(#filter3256)" transform="translate(-73,-56)"><path id="path2407" fill="gray" fill-opacity="1" fill-rule="evenodd" stroke="none" stroke-width="2.5" d="M 227.05368,284.39411 L 164.74196,303.0251 L 116.67245,260.86164 L 130.91466,200.06718 L 193.22638,181.43619 L 241.29589,223.59964 L 227.05368,284.39411 z"/><path id="path2409" fill="gray" fill-opacity="1" fill-rule="evenodd" stroke="none" stroke-width="2.5" d="M 306.92898,202.28704 L 244.61726,220.91802 L 196.54775,178.75456 L 210.78997,117.9601 L 273.10168,99.32911 L 321.17119,141.49257 L 306.92898,202.28704 z"/><path id="path2411" fill="gray" fill-opacity="1" fill-rule="evenodd" stroke="none" stroke-width="2.5" d="M 193.21004,177.93282 L 130.89832,196.56381 L 82.82881,154.40034 L 97.07103,93.60589 L 159.38275,74.9749 L 207.45226,117.13836 L 193.21004,177.93282 z"/></g><path id="path854" fill="#ffc62a" fill-opacity="1" fill-rule="evenodd" stroke="#ff9500" stroke-width="2.5" d="M 148.16391,216.46025 L 85.852189,235.09124 L 37.782681,192.92778 L 52.024892,132.13332 L 114.33661,113.50233 L 162.40612,155.66578 L 148.16391,216.46025 z"/><path id="path853" fill="#ffc62a" fill-opacity="1" fill-rule="evenodd" stroke="#ff9500" stroke-width="2.5" d="M 228.03921,134.35318 L 165.72749,152.98416 L 117.65798,110.8207 L 131.9002,50.026243 L 194.21191,31.395251 L 242.28142,73.558708 L 228.03921,134.35318 z"/><path id="path852" fill="#ffc62a" fill-opacity="1" fill-rule="evenodd" stroke="#ff9500" stroke-width="2.5" d="M 114.32027,109.99896 L 52.008558,128.62995 L 3.9390451,86.466485 L 18.18126,25.672032 L 80.492981,7.041042 L 128.56249,49.204501 L 114.32027,109.99896 z"/><path id="path855" fill="url(#linearGradient2402)" fill-opacity="1" fill-rule="evenodd" stroke-width="1pt" d="M 78.584586,10.58363 C 78.584586,10.58363 19.822423,25.818265 19.822423,28.538735 C 19.822423,31.259206 6.220071,80.771769 6.764165,85.668616 C 6.764165,87.844992 46.483034,124.84339 51.379881,124.84339 C 32.336588,80.227678 21.998799,25.818265 78.584586,10.58363 z"/><path id="path860" fill="url(#linearGradient2399)" fill-opacity="1" fill-rule="evenodd" stroke-width="1pt" d="M 191.76411,34.523759 C 191.76411,34.523759 133.00195,49.758399 133.00195,52.478869 C 133.00195,55.199339 119.3996,104.7119 119.9437,109.60875 C 119.9437,111.78513 159.66256,148.78353 164.55941,148.78353 C 145.51612,104.16781 135.17833,49.758399 191.76411,34.523759 z"/><path id="path861" fill="url(#linearGradient2396)" fill-opacity="1" fill-rule="evenodd" stroke-width="1pt" d="M 112.32638,116.13787 C 112.32638,116.13787 53.564204,131.37251 53.564204,134.09298 C 53.564204,136.81345 39.961854,186.32601 40.505954,191.22286 C 40.505954,193.39924 80.224824,230.39764 85.121664,230.39764 C 66.078374,185.78192 55.740584,131.37251 112.32638,116.13787 z"/></svg>