<svg xmlns="http://www.w3.org/2000/svg" xmlns:svg="http://www.w3.org/2000/svg" xmlns:xlink="http://www.w3.org/1999/xlink" id="svg2" width="161.006" height="162.852" version="1.0"><metadata id="metadata45"/><defs id="defs4"><linearGradient id="linearGradient3201"><stop id="stop3203" offset="0" stop-color="#fefbfe" stop-opacity=".247"/><stop id="stop3205" offset=".88" stop-color="#d9f0e8" stop-opacity=".122"/><stop id="stop3207" offset="1" stop-color="#ccc" stop-opacity="0"/></linearGradient><linearGradient id="linearGradient3630"><stop id="stop3632" offset="0" stop-color="#d72906" stop-opacity="1"/><stop id="stop3636" offset="1" stop-color="#684342" stop-opacity=".498"/><stop id="stop3634" offset="1" stop-color="#000" stop-opacity="0"/></linearGradient><linearGradient id="linearGradient3607"><stop id="stop3615" offset="0" stop-color="#fefbfe" stop-opacity=".247"/><stop id="stop3617" offset=".5" stop-color="#d9f0e8" stop-opacity=".122"/><stop id="stop3611" offset="1" stop-color="#ccc" stop-opacity="0"/></linearGradient><linearGradient id="linearGradient3582"><stop id="stop3584" offset="0" stop-color="#989898" stop-opacity=".624"/><stop id="stop3586" offset="1" stop-color="#ccc" stop-opacity="0"/></linearGradient><linearGradient id="linearGradient3230"><stop id="stop3232" offset="0" stop-color="#122f14" stop-opacity="1"/><stop id="stop3234" offset="1" stop-color="#000" stop-opacity="0"/></linearGradient><linearGradient id="linearGradient3196"><stop id="stop3226" offset="0" stop-color="#231949" stop-opacity=".339"/><stop id="stop3200" offset="1" stop-color="#000" stop-opacity="0"/></linearGradient><linearGradient id="linearGradient3190" x1="126.493" x2="228.18" y1="74.176" y2="44.028" gradientTransform="matrix(0.8601021,0,0,1.0005692,25.379257,-5.7704576e-2)" gradientUnits="userSpaceOnUse" xlink:href="#linearGradient3196"/><linearGradient id="linearGradient3236" x1="30.734" x2="189.705" y1="85.687" y2="100.767" gradientTransform="matrix(-0.8364638,0,0,1.0006705,221.06176,-6.7568547e-2)" gradientUnits="userSpaceOnUse" xlink:href="#linearGradient3230"/><linearGradient id="linearGradient3588" x1="126.493" x2="228.18" y1="74.176" y2="44.028" gradientTransform="matrix(0.8601021,0,0,1.0005692,25.379257,-5.7704576e-2)" gradientUnits="userSpaceOnUse" xlink:href="#linearGradient3582"/><linearGradient id="linearGradient3628" x1="132.348" x2="30.35" y1="80.496" y2="156.684" gradientUnits="userSpaceOnUse" xlink:href="#linearGradient3630"/><filter id="filter3644" width="1.236" height="1.244" x="-.118" y="-.122"><feGaussianBlur id="feGaussianBlur3646" stdDeviation="6.513"/></filter><linearGradient id="linearGradient3653" x1="126.493" x2="228.18" y1="74.176" y2="44.028" gradientTransform="translate(-7.53878e-2,3.75965)" gradientUnits="userSpaceOnUse" xlink:href="#linearGradient3196"/><linearGradient id="linearGradient3663" x1="126.493" x2="228.18" y1="74.176" y2="44.028" gradientTransform="matrix(0.8656973,0,0,1.0005456,24.288794,-0.3715097)" gradientUnits="userSpaceOnUse" xlink:href="#linearGradient3196"/><linearGradient id="linearGradient3667" x1="126.493" x2="228.18" y1="74.176" y2="44.028" gradientTransform="matrix(0.8628997,0,0,1.0005574,24.871722,-5.6506143e-2)" gradientUnits="userSpaceOnUse" xlink:href="#linearGradient3196"/><linearGradient id="linearGradient3684" x1="119.529" x2="152.758" y1="76.937" y2="91.569" gradientTransform="matrix(0.8368808,0,0,1.0782116,27.311568,-10.729952)" gradientUnits="userSpaceOnUse" xlink:href="#linearGradient3607"/><linearGradient id="linearGradient2421" x1="30.734" x2="189.705" y1="85.687" y2="100.767" gradientTransform="matrix(-1.0183682,0,0,1.2182846,198.2308,-43.4972)" gradientUnits="userSpaceOnUse" xlink:href="#linearGradient3230"/><linearGradient id="linearGradient2424" x1="126.493" x2="228.18" y1="74.176" y2="44.028" gradientTransform="matrix(1.047147,0,0,1.2181613,-40.006439,-43.485191)" gradientUnits="userSpaceOnUse" xlink:href="#linearGradient3582"/><linearGradient id="linearGradient2426" x1="126.493" x2="228.18" y1="74.176" y2="44.028" gradientTransform="matrix(1.047147,0,0,1.2181613,-40.006439,-43.485191)" gradientUnits="userSpaceOnUse" xlink:href="#linearGradient3196"/><linearGradient id="linearGradient3199" x1="119.529" x2="170.879" y1="76.937" y2="94.32" gradientTransform="matrix(1.0188758,0,0,1.3126884,-37.653912,-56.478313)" gradientUnits="userSpaceOnUse" xlink:href="#linearGradient3201"/><filter id="filter3246"><feGaussianBlur id="feGaussianBlur3248" stdDeviation="1.852"/></filter></defs><path id="path3196" fill="#b3b3b3" fill-opacity="1" fill-rule="evenodd" stroke="none" stroke-linecap="butt" stroke-linejoin="miter" stroke-opacity="1" stroke-width=".928" d="M 32.949113,28.576479 C 29.080923,80.361452 50.063947,121.73968 88.031917,146.80686 C 88.885667,147.55494 89.256637,147.37504 90.141797,146.73227 C 128.03576,121.65731 148.97601,80.308122 145.11181,28.576479 C 102.07329,17.300385 72.123877,17.441268 32.949113,28.576479 z" filter="url(#filter3246)" transform="matrix(1.2174683,0,0,1.2174683,-22.799457,-17.750828)"/><g id="layer5" display="inline" transform="matrix(1.2174683,0,0,1.2174683,-70.904879,-43.414937)"><path id="path3655" fill="#fafafa" fill-opacity="1" fill-rule="evenodd" stroke="url(#linearGradient3663)" stroke-linecap="butt" stroke-linejoin="miter" stroke-opacity="1" stroke-width=".931" d="M 67.763027,45.903724 C 63.869675,97.687477 84.989198,139.06473 123.20416,164.13132 C 124.06346,164.87938 124.43685,164.69948 125.32776,164.05673 C 163.46823,138.98237 184.54469,97.634147 180.65535,45.903724 C 137.33687,34.627896 107.19263,34.768776 67.763027,45.903724 z" opacity="1"/><path id="path3665" fill="#fafafa" fill-opacity="1" fill-rule="evenodd" stroke="url(#linearGradient3667)" stroke-linecap="butt" stroke-linejoin="miter" stroke-opacity="1" stroke-width=".929" d="M 68.205466,46.219273 C 64.324695,98.003637 85.375968,139.38138 123.46743,164.44827 C 124.32396,165.19634 124.69615,165.01643 125.58417,164.37367 C 163.60139,139.29902 184.60974,97.950307 180.73298,46.219273 C 137.55447,34.943312 107.50765,35.084194 68.205466,46.219273 z" opacity="1"/></g><path id="path2391" fill="url(#linearGradient2424)" fill-opacity="1" fill-rule="evenodd" stroke="url(#linearGradient2426)" stroke-linecap="butt" stroke-linejoin="miter" stroke-opacity="1" stroke-width="1.129" d="M 12.57998,12.854768 C 7.870582,75.901334 33.416749,126.27802 79.64155,156.79652 C 80.680964,157.70728 81.132608,157.48826 82.210262,156.7057 C 128.34496,126.17774 153.83905,75.836405 149.13451,12.854768 C 96.73647,-0.87351834 60.274016,-0.70199775 12.57998,12.854768 z"/><path id="path2400" fill="#2a7fff" fill-opacity="1" fill-rule="evenodd" stroke="url(#linearGradient2421)" stroke-linecap="butt" stroke-linejoin="miter" stroke-opacity="1" stroke-width=".972" d="M 138.8055,20.605464 C 142.80172,75.621733 121.12424,119.58191 81.899698,146.21322 C 81.017691,147.00799 80.634444,146.81687 79.720004,146.134 C 40.57189,119.4944 18.938614,75.56507 22.930697,20.605464 C 65.485523,8.9518524 98.33422,8.7754328 138.8055,20.605464 z"/><g id="layer3" display="none" transform="translate(-39.51267,-21.079899)"><path id="rect3590" fill="url(#linearGradient3628)" fill-opacity="1" fill-rule="nonzero" stroke="none" stroke-dasharray="none" stroke-miterlimit="4" stroke-opacity="1" stroke-width="1" d="M 104.50466,65.159195 L 104.50466,82.596695 L 87.567173,82.596695 L 87.567173,106.53418 L 104.50466,106.53418 L 104.50466,124.28418 L 128.47342,124.28418 L 128.47342,106.53418 L 146.66092,106.53418 L 146.66092,82.596695 L 128.47342,82.596695 L 128.47342,65.159195 L 104.50466,65.159195 z" opacity="1"/></g><text id="text3209" x="71.843" y="99.237" fill="#025" fill-opacity="1" stroke="none" stroke-linecap="butt" stroke-linejoin="miter" stroke-opacity="1" stroke-width="1" font-family="Bitstream Charter" font-size="91.301" font-stretch="normal" font-style="italic" font-variant="normal" font-weight="bold" text-anchor="start" writing-mode="lr-tb" xml:space="preserve" style="text-align:start;line-height:125%;-inkscape-font-specification:Bitstream Charter Bold Italic"><tspan id="tspan3211" x="71.843" y="99.237">f</tspan></text><path id="path3676" fill="url(#linearGradient3199)" fill-opacity="1" fill-rule="evenodd" stroke="none" stroke-linecap="butt" stroke-linejoin="miter" stroke-opacity="1" stroke-width="1" d="M 81.377759,145.41572 C 87.378794,112.82431 89.999807,54.245663 79.88799,12.048574 C 103.65161,13.567062 130.41803,15.747995 137.35459,20.420822 C 142.78806,84.971564 114.98173,117.55342 81.377759,145.41572 z"/></svg>