<svg xmlns="http://www.w3.org/2000/svg" xmlns:cc="http://web.resource.org/cc/" xmlns:svg="http://www.w3.org/2000/svg" xmlns:xlink="http://www.w3.org/1999/xlink" id="svg2924" width="151.009" height="151.009" version="1.0"><defs id="defs2926"><linearGradient id="linearGradient2764"><stop id="stop2766" offset="0" stop-color="red" stop-opacity="1"/><stop id="stop2768" offset="1" stop-color="#6c0000" stop-opacity="1"/></linearGradient><radialGradient id="radialGradient3817" cx="595.408" cy="886.475" r="75.505" fx="595.408" fy="886.475" gradientUnits="userSpaceOnUse" xlink:href="#linearGradient2764"/><linearGradient id="linearGradient2776"><stop id="stop2778" offset="0" stop-color="#fff" stop-opacity="1"/><stop id="stop2780" offset="1" stop-color="red" stop-opacity="0"/></linearGradient><linearGradient id="linearGradient3819" x1="606.194" x2="581.378" y1="808.656" y2="936.857" gradientTransform="translate(-342.7853,-477.1426)" gradientUnits="userSpaceOnUse" xlink:href="#linearGradient2776"/></defs><metadata id="metadata2929"/><g id="layer1" transform="translate(-158.7811,-359.7147)"><path id="path3811" fill="url(#radialGradient3817)" fill-opacity="1" stroke="none" stroke-dasharray="none" stroke-linecap="round" stroke-linejoin="round" stroke-miterlimit="4" stroke-opacity="1" stroke-width=".2" d="M 652.57567 908.04736 A 75.504623 75.504623 0 1 1 501.56642,908.04736 A 75.504623 75.504623 0 1 1 652.57567 908.04736 z" opacity="1" transform="translate(-342.7853,-472.828)"/><path id="path3813" fill="url(#linearGradient3819)" fill-opacity="1" stroke="none" stroke-linecap="round" stroke-linejoin="round" stroke-miterlimit="4" stroke-opacity="1" stroke-width=".2" d="M 294.68941,438.99454 C 288.21758,468.19973 263.71957,415.80384 237.52162,415.80384 C 211.32367,415.80384 181.43247,435.8406 181.43247,405.55678 C 181.43247,383.90205 215.63822,366.18652 241.83617,366.18652 C 268.03412,366.18652 302.23987,395.76707 294.68941,438.99454 z"/><path id="path2871" fill="#fff" fill-opacity="1" stroke="none" stroke-dasharray="none" stroke-linecap="round" stroke-linejoin="round" stroke-miterlimit="4" stroke-opacity="1" stroke-width="1" d="M 195.83607,384.87721 C 190.11333,384.87721 185.47794,389.88903 185.47794,395.61178 L 185.60742,399.755 L 199.39668,399.755 L 199.39668,449.96808 C 199.39673,464.17994 202.31697,474.52627 208.13639,480.97773 C 214.00375,487.42919 223.32693,490.62374 236.16807,490.62374 C 249.05716,490.6237 258.38038,487.42918 264.19977,480.97773 C 270.01904,474.5263 273.00409,464.17996 273.00419,449.96808 L 273.00419,413.52171 L 272.80993,413.78065 C 272.80993,408.05794 268.17457,403.42253 262.45183,403.42253 L 251.70524,403.40595 L 251.70524,455.14713 C 251.70524,460.38318 250.30329,464.52023 247.56202,467.51215 C 244.82061,470.45742 241.02547,471.91438 236.16807,471.91438 C 231.31059,471.91438 227.51541,470.45745 224.77412,467.51215 C 222.0327,464.52021 220.69558,460.38317 220.69561,455.14713 L 220.24245,384.91687 L 195.83607,384.87721 z" font-family="Bitstream Vera Sans" font-size="20.353" font-style="normal" font-weight="normal" style="line-height:100%"/></g></svg>