<svg xmlns="http://www.w3.org/2000/svg" xmlns:svg="http://www.w3.org/2000/svg" id="svg2" width="16.87" height="17.04" version="1.0"><metadata id="metadata7"/><g id="layer1" transform="translate(-2.8543262,1.0590396)"><g id="g2399" fill="#00f"><path id="path2411" fill="#e9e9ff" fill-rule="evenodd" stroke="none" stroke-linecap="butt" stroke-linejoin="round" stroke-opacity="1" stroke-width="1" d="M 18.829046,-1014.531 L 39.62156,-1021.3005 L 39.62156,-1002.4585 L 18.829046,-998.76974 L 18.829046,-1014.531 z"/><path id="path2401" fill="#353564" fill-rule="evenodd" stroke="none" stroke-linecap="butt" stroke-linejoin="round" stroke-opacity="1" stroke-width="1" d="M 1.751118,-1023.5074 L 1.751118,-1003.6611 L 18.829046,-998.76974 L 18.829046,-1014.531 L 1.751118,-1023.5074 z"/><path id="path2403" fill="#4d4d9f" fill-rule="evenodd" stroke="none" stroke-linecap="butt" stroke-linejoin="round" stroke-opacity="1" stroke-width="1" d="M 1.751118,-1023.5074 L 24.902271,-1034.8136 L 39.62156,-1021.3005 L 18.829046,-1014.531 L 1.751118,-1023.5074 z"/><path id="path2409" fill="#afafde" fill-rule="evenodd" stroke="none" stroke-linecap="butt" stroke-linejoin="round" stroke-opacity="1" stroke-width="1" d="M 1.751118,-1003.6611 L 24.902271,-1009.822 L 39.62156,-1002.4585 L 18.829046,-998.76974 L 1.751118,-1003.6611 z"/><path id="path2407" fill="#d7d7ff" fill-rule="evenodd" stroke="none" stroke-linecap="butt" stroke-linejoin="round" stroke-opacity="1" stroke-width="1" d="M 24.902271,-1034.8136 L 24.902271,-1009.822 L 39.62156,-1002.4585 L 39.62156,-1021.3005 L 24.902271,-1034.8136 z"/><path id="path2405" fill="#8686bf" fill-rule="evenodd" stroke="none" stroke-linecap="butt" stroke-linejoin="round" stroke-opacity="1" stroke-width="1" d="M 1.751118,-1023.5074 L 24.902271,-1034.8136 L 24.902271,-1009.822 L 1.751118,-1003.6611 L 1.751118,-1023.5074 z"/></g><path id="path2867" fill="navy" stroke="red" d="M 30.644566,30.644566 A 0,1.6051915 0 1 1 30.644566,30.644566 A 0,1.6051915 0 1 1 30.644566,30.644566 z" transform="translate(2.8543262,-1.0590396)"/><rect id="rect2399" width="9.243" height="9.523" x="4.357" y="-.233" fill="#f9c370" fill-opacity="1" stroke="#000" stroke-dasharray="none" stroke-miterlimit="0" stroke-opacity=".667" stroke-width=".288" opacity="1"/><rect id="rect3171" width="3.361" height="4.342" x="6.038" y="2.147" fill="#e7ee00" fill-opacity=".532" stroke="#009500" stroke-dasharray="none" stroke-miterlimit="0" stroke-opacity=".667" stroke-width=".288" opacity="1"/><rect id="rect3173" width="3.361" height="4.342" x="7.858" y=".957" fill="#e7ee00" fill-opacity=".532" stroke="#009500" stroke-dasharray="none" stroke-miterlimit="0" stroke-opacity=".667" stroke-width=".288" opacity="1"/><rect id="rect3175" width="3.361" height="4.342" x="7.858" y="3.898" fill="#e7ee00" fill-opacity=".532" stroke="#009500" stroke-dasharray="none" stroke-miterlimit="0" stroke-opacity=".667" stroke-width=".288" opacity="1"/><rect id="rect3177" width="9.243" height="9.523" x="9.679" y="2.428" fill="#f9c370" fill-opacity="1" stroke="#000" stroke-dasharray="none" stroke-miterlimit="0" stroke-opacity=".667" stroke-width=".288" opacity="1"/><rect id="rect3179" width="3.361" height="4.342" x="11.5" y="4.948" fill="#e7ee00" fill-opacity=".532" stroke="#009500" stroke-dasharray="none" stroke-miterlimit="0" stroke-opacity=".667" stroke-width=".288" opacity="1"/><rect id="rect3181" width="3.361" height="4.342" x="15.001" y="-.303" fill="#e7ee00" fill-opacity=".532" stroke="#009500" stroke-dasharray="none" stroke-miterlimit="0" stroke-opacity=".667" stroke-width=".288" opacity="1"/><rect id="rect3183" width="3.361" height="4.342" x="13.32" y="6.699" fill="#e7ee00" fill-opacity=".532" stroke="#009500" stroke-dasharray="none" stroke-miterlimit="0" stroke-opacity=".667" stroke-width=".288" opacity="1"/><rect id="rect3185" width="9.243" height="9.523" x="4.357" y="5.369" fill="#f9c370" fill-opacity="1" stroke="#000" stroke-dasharray="none" stroke-miterlimit="0" stroke-opacity=".667" stroke-width=".288" opacity="1"/><rect id="rect3187" width="3.361" height="4.342" x="6.038" y="7.749" fill="#e7ee00" fill-opacity=".532" stroke="#009500" stroke-dasharray="none" stroke-miterlimit="0" stroke-opacity=".667" stroke-width=".288" opacity="1"/><rect id="rect3189" width="3.361" height="4.342" x="7.858" y="6.559" fill="#e7ee00" fill-opacity=".532" stroke="#009500" stroke-dasharray="none" stroke-miterlimit="0" stroke-opacity=".667" stroke-width=".288" opacity="1"/><rect id="rect3191" width="3.361" height="4.342" x="7.858" y="9.5" fill="#e7ee00" fill-opacity=".532" stroke="#009500" stroke-dasharray="none" stroke-miterlimit="0" stroke-opacity=".667" stroke-width=".288" opacity="1"/></g></svg>