<svg xmlns="http://www.w3.org/2000/svg" xmlns:svg="http://www.w3.org/2000/svg" id="svg2" width="37.87" height="36.044" version="1.0"><metadata id="metadata7"/><g id="layer1" transform="translate(-2.8543262,1.0590396)"><g id="g2399" fill="#00f"><path id="path2411" fill="#e9e9ff" fill-rule="evenodd" stroke="none" stroke-linecap="butt" stroke-linejoin="round" stroke-opacity="1" stroke-width="1" d="M 18.829046,-995.52712 L 39.62156,-1002.2967 L 39.62156,-983.4547 L 18.829046,-979.76589 L 18.829046,-995.52712 z"/><path id="path2401" fill="#353564" fill-rule="evenodd" stroke="none" stroke-linecap="butt" stroke-linejoin="round" stroke-opacity="1" stroke-width="1" d="M 1.751118,-1004.5035 L 1.751118,-984.65723 L 18.829046,-979.76589 L 18.829046,-995.52712 L 1.751118,-1004.5035 z"/><path id="path2403" fill="#4d4d9f" fill-rule="evenodd" stroke="none" stroke-linecap="butt" stroke-linejoin="round" stroke-opacity="1" stroke-width="1" d="M 1.751118,-1004.5035 L 24.902271,-1015.8097 L 39.62156,-1002.2967 L 18.829046,-995.52712 L 1.751118,-1004.5035 z"/><path id="path2409" fill="#afafde" fill-rule="evenodd" stroke="none" stroke-linecap="butt" stroke-linejoin="round" stroke-opacity="1" stroke-width="1" d="M 1.751118,-984.65723 L 24.902271,-990.81812 L 39.62156,-983.4547 L 18.829046,-979.76589 L 1.751118,-984.65723 z"/><path id="path2407" fill="#d7d7ff" fill-rule="evenodd" stroke="none" stroke-linecap="butt" stroke-linejoin="round" stroke-opacity="1" stroke-width="1" d="M 24.902271,-1015.8097 L 24.902271,-990.81812 L 39.62156,-983.4547 L 39.62156,-1002.2967 L 24.902271,-1015.8097 z"/><path id="path2405" fill="#8686bf" fill-rule="evenodd" stroke="none" stroke-linecap="butt" stroke-linejoin="round" stroke-opacity="1" stroke-width="1" d="M 1.751118,-1004.5035 L 24.902271,-1015.8097 L 24.902271,-990.81812 L 1.751118,-984.65723 L 1.751118,-1004.5035 z"/></g><path id="path2867" fill="navy" stroke="red" d="M 30.644566,30.644566 A 0,1.6051915 0 1 1 30.644566,30.644566 A 0,1.6051915 0 1 1 30.644566,30.644566 z" transform="translate(2.8543262,-1.0590396)"/><rect id="rect2399" width="19.262" height="19.846" x="3.21" y="2.773" fill="#f9c370" fill-opacity="1" stroke="#000" stroke-dasharray="none" stroke-miterlimit="0" stroke-opacity=".667" stroke-width=".6" opacity="1" transform="translate(2.8543262,-1.0590396)"/><rect id="rect3171" width="7.004" height="9.047" x="6.713" y="7.734" fill="#e7ee00" fill-opacity=".532" stroke="#009500" stroke-dasharray="none" stroke-miterlimit="0" stroke-opacity=".667" stroke-width=".6" opacity="1" transform="translate(2.8543262,-1.0590396)"/><rect id="rect3173" width="7.004" height="9.047" x="13.361" y="4.194" fill="#e7ee00" fill-opacity=".532" stroke="#009500" stroke-dasharray="none" stroke-miterlimit="0" stroke-opacity=".667" stroke-width=".6" opacity="1"/><rect id="rect3175" width="7.004" height="9.047" x="13.361" y="10.323" fill="#e7ee00" fill-opacity=".532" stroke="#009500" stroke-dasharray="none" stroke-miterlimit="0" stroke-opacity=".667" stroke-width=".6" opacity="1"/><rect id="rect3177" width="19.262" height="19.846" x="17.155" y="7.259" fill="#f9c370" fill-opacity="1" stroke="#000" stroke-dasharray="none" stroke-miterlimit="0" stroke-opacity=".667" stroke-width=".6" opacity="1"/><rect id="rect3179" width="7.004" height="9.047" x="20.949" y="12.512" fill="#e7ee00" fill-opacity=".532" stroke="#009500" stroke-dasharray="none" stroke-miterlimit="0" stroke-opacity=".667" stroke-width=".6" opacity="1"/><rect id="rect3181" width="7.004" height="9.047" x="28.246" y="1.568" fill="#e7ee00" fill-opacity=".532" stroke="#009500" stroke-dasharray="none" stroke-miterlimit="0" stroke-opacity=".667" stroke-width=".6" opacity="1"/><rect id="rect3183" width="7.004" height="9.047" x="24.743" y="16.16" fill="#e7ee00" fill-opacity=".532" stroke="#009500" stroke-dasharray="none" stroke-miterlimit="0" stroke-opacity=".667" stroke-width=".6" opacity="1"/><rect id="rect3185" width="19.262" height="19.846" x="6.065" y="13.388" fill="#f9c370" fill-opacity="1" stroke="#000" stroke-dasharray="none" stroke-miterlimit="0" stroke-opacity=".667" stroke-width=".6" opacity="1"/><rect id="rect3187" width="7.004" height="9.047" x="9.567" y="18.349" fill="#e7ee00" fill-opacity=".532" stroke="#009500" stroke-dasharray="none" stroke-miterlimit="0" stroke-opacity=".667" stroke-width=".6" opacity="1"/><rect id="rect3189" width="7.004" height="9.047" x="13.361" y="15.868" fill="#e7ee00" fill-opacity=".532" stroke="#009500" stroke-dasharray="none" stroke-miterlimit="0" stroke-opacity=".667" stroke-width=".6" opacity="1"/><rect id="rect3191" width="7.004" height="9.047" x="13.361" y="21.997" fill="#e7ee00" fill-opacity=".532" stroke="#009500" stroke-dasharray="none" stroke-miterlimit="0" stroke-opacity=".667" stroke-width=".6" opacity="1"/></g></svg>