<svg xmlns="http://www.w3.org/2000/svg" xmlns:svg="http://www.w3.org/2000/svg" xmlns:xlink="http://www.w3.org/1999/xlink" id="svg2" width="15.838" height="17.995" version="1.0"><defs id="defs4"><linearGradient id="linearGradient3173"><stop id="stop3175" offset="0" stop-color="#da0014" stop-opacity="1"/><stop id="stop3177" offset="1" stop-color="#da0014" stop-opacity="0"/></linearGradient><linearGradient id="linearGradient3183" x1="15.844" x2="22.097" y1="25.245" y2="25.245" gradientUnits="userSpaceOnUse" xlink:href="#linearGradient3173"/></defs><metadata id="metadata7"/><g id="layer1" transform="translate(-9.096789,-1.2131404)"><g id="g2399" fill="#00f"><path id="path2411" fill="#e9e9ff" fill-rule="evenodd" stroke="none" stroke-linecap="butt" stroke-linejoin="round" stroke-opacity="1" stroke-width="1" d="M 12.586583,-1011.304 L 33.379098,-1018.0735 L 33.379098,-999.23154 L 12.586583,-995.54273 L 12.586583,-1011.304 z"/><path id="path2401" fill="#353564" fill-rule="evenodd" stroke="none" stroke-linecap="butt" stroke-linejoin="round" stroke-opacity="1" stroke-width="1" d="M -4.4913448,-1020.2804 L -4.4913448,-1000.4341 L 12.586583,-995.54273 L 12.586583,-1011.304 L -4.4913448,-1020.2804 z"/><path id="path2403" fill="#4d4d9f" fill-rule="evenodd" stroke="none" stroke-linecap="butt" stroke-linejoin="round" stroke-opacity="1" stroke-width="1" d="M -4.4913448,-1020.2804 L 18.659809,-1031.5866 L 33.379098,-1018.0735 L 12.586583,-1011.304 L -4.4913448,-1020.2804 z"/><path id="path2409" fill="#afafde" fill-rule="evenodd" stroke="none" stroke-linecap="butt" stroke-linejoin="round" stroke-opacity="1" stroke-width="1" d="M -4.4913448,-1000.4341 L 18.659809,-1006.595 L 33.379098,-999.23154 L 12.586583,-995.54273 L -4.4913448,-1000.4341 z"/><path id="path2407" fill="#d7d7ff" fill-rule="evenodd" stroke="none" stroke-linecap="butt" stroke-linejoin="round" stroke-opacity="1" stroke-width="1" d="M 18.659809,-1031.5866 L 18.659809,-1006.595 L 33.379098,-999.23154 L 33.379098,-1018.0735 L 18.659809,-1031.5866 z"/><path id="path2405" fill="#8686bf" fill-rule="evenodd" stroke="none" stroke-linecap="butt" stroke-linejoin="round" stroke-opacity="1" stroke-width="1" d="M -4.4913448,-1020.2804 L 18.659809,-1031.5866 L 18.659809,-1006.595 L -4.4913448,-1000.4341 L -4.4913448,-1020.2804 z"/></g><path id="path2867" fill="navy" stroke="red" d="M 30.644566,30.644566 A 0,1.6051915 0 1 1 30.644566,30.644566 A 0,1.6051915 0 1 1 30.644566,30.644566 z" transform="translate(2.8543262,-1.0590396)"/><text id="text3167" x="9.486" y="12.65" fill="#000" fill-opacity="1" stroke="none" stroke-linecap="butt" stroke-linejoin="miter" stroke-opacity="1" stroke-width="1" font-family="Bitstream Vera Sans" font-size="15.769" font-style="normal" font-weight="bold" transform="scale(0.9512889,1.0512054)" xml:space="preserve" style="-inkscape-font-specification:Sans Bold"><tspan id="tspan3169" x="9.486" y="12.65">A</tspan></text><rect id="rect3187" width="4.036" height="3.067" x="10.727" y="16.141" fill="red" fill-opacity=".383" stroke="#da0014" stroke-dasharray="none" stroke-miterlimit="0" stroke-opacity="1" stroke-width="0" opacity="1"/><rect id="rect3189" width="4.036" height="3.067" x="11.698" y="14.485" fill="#0f0" fill-opacity=".383" stroke="#da0014" stroke-dasharray="none" stroke-miterlimit="0" stroke-opacity="1" stroke-width="0" opacity="1"/><rect id="rect3191" width="4.036" height="3.067" x="14.426" y="15.973" fill="#00f" fill-opacity=".383" stroke="#da0014" stroke-dasharray="none" stroke-miterlimit="0" stroke-opacity="1" stroke-width="0" opacity="1"/><rect id="rect3211" width=".484" height="11.139" x="22.685" y="3.541" fill="#00f" fill-opacity="1" stroke="#da0014" stroke-dasharray="none" stroke-miterlimit="0" stroke-opacity="1" stroke-width="0" opacity="1"/><rect id="rect3215" width="3.935" height=".646" x="20.969" y="14.66" fill="#00f" fill-opacity="1" stroke="#da0014" stroke-dasharray="none" stroke-miterlimit="0" stroke-opacity="1" stroke-width="0" opacity="1"/><rect id="rect3217" width="3.935" height=".646" x="21" y="2.976" fill="#00f" fill-opacity="1" stroke="#da0014" stroke-dasharray="none" stroke-miterlimit="0" stroke-opacity="1" stroke-width="0" opacity="1"/></g></svg>