<svg xmlns="http://www.w3.org/2000/svg" xmlns:svg="http://www.w3.org/2000/svg" xmlns:xlink="http://www.w3.org/1999/xlink" id="svg2" width="37.87" height="36.044" version="1.0"><defs id="defs4"><linearGradient id="linearGradient3173"><stop id="stop3175" offset="0" stop-color="#da0014" stop-opacity="1"/><stop id="stop3177" offset="1" stop-color="#da0014" stop-opacity="0"/></linearGradient><linearGradient id="linearGradient3183" x1="15.844" x2="22.097" y1="25.245" y2="25.245" gradientUnits="userSpaceOnUse" xlink:href="#linearGradient3173"/></defs><metadata id="metadata7"/><g id="layer1" transform="translate(-2.8543262,1.0590396)"><g id="g2399" fill="#00f"><path id="path2411" fill="#e9e9ff" fill-rule="evenodd" stroke="none" stroke-linecap="butt" stroke-linejoin="round" stroke-opacity="1" stroke-width="1" d="M 18.829046,-995.52712 L 39.62156,-1002.2967 L 39.62156,-983.4547 L 18.829046,-979.76589 L 18.829046,-995.52712 z"/><path id="path2401" fill="#353564" fill-rule="evenodd" stroke="none" stroke-linecap="butt" stroke-linejoin="round" stroke-opacity="1" stroke-width="1" d="M 1.751118,-1004.5035 L 1.751118,-984.65723 L 18.829046,-979.76589 L 18.829046,-995.52712 L 1.751118,-1004.5035 z"/><path id="path2403" fill="#4d4d9f" fill-rule="evenodd" stroke="none" stroke-linecap="butt" stroke-linejoin="round" stroke-opacity="1" stroke-width="1" d="M 1.751118,-1004.5035 L 24.902271,-1015.8097 L 39.62156,-1002.2967 L 18.829046,-995.52712 L 1.751118,-1004.5035 z"/><path id="path2409" fill="#afafde" fill-rule="evenodd" stroke="none" stroke-linecap="butt" stroke-linejoin="round" stroke-opacity="1" stroke-width="1" d="M 1.751118,-984.65723 L 24.902271,-990.81812 L 39.62156,-983.4547 L 18.829046,-979.76589 L 1.751118,-984.65723 z"/><path id="path2407" fill="#d7d7ff" fill-rule="evenodd" stroke="none" stroke-linecap="butt" stroke-linejoin="round" stroke-opacity="1" stroke-width="1" d="M 24.902271,-1015.8097 L 24.902271,-990.81812 L 39.62156,-983.4547 L 39.62156,-1002.2967 L 24.902271,-1015.8097 z"/><path id="path2405" fill="#8686bf" fill-rule="evenodd" stroke="none" stroke-linecap="butt" stroke-linejoin="round" stroke-opacity="1" stroke-width="1" d="M 1.751118,-1004.5035 L 24.902271,-1015.8097 L 24.902271,-990.81812 L 1.751118,-984.65723 L 1.751118,-1004.5035 z"/></g><path id="path2867" fill="navy" stroke="red" d="M 30.644566,30.644566 A 0,1.6051915 0 1 1 30.644566,30.644566 A 0,1.6051915 0 1 1 30.644566,30.644566 z" transform="translate(2.8543262,-1.0590396)"/><text id="text3167" x="9.423" y="21.937" fill="#242428" fill-opacity=".652" stroke="none" stroke-linecap="butt" stroke-linejoin="miter" stroke-opacity="1" stroke-width="1" font-family="Bitstream Vera Sans" font-size="28.509" font-style="normal" font-weight="bold" transform="scale(0.9512889,1.0512054)" xml:space="preserve" style="-inkscape-font-specification:Sans Bold"><tspan id="tspan3169" x="9.423" y="21.937">A</tspan></text><rect id="rect3187" width="7.296" height="5.545" x="12.043" y="28.2" fill="#242428" fill-opacity=".652" stroke="#da0014" stroke-dasharray="none" stroke-miterlimit="0" stroke-opacity="1" stroke-width="0" opacity="1"/><rect id="rect3189" width="7.296" height="5.545" x="13.799" y="25.208" fill="#242428" fill-opacity=".652" stroke="#da0014" stroke-dasharray="none" stroke-miterlimit="0" stroke-opacity="1" stroke-width="0" opacity="1"/><rect id="rect3191" width="7.296" height="5.545" x="18.731" y="27.897" fill="#242428" fill-opacity=".652" stroke="#da0014" stroke-dasharray="none" stroke-miterlimit="0" stroke-opacity="1" stroke-width="0" opacity="1"/><rect id="rect3211" width=".876" height="20.138" x="33.662" y="5.422" fill="#242428" fill-opacity=".652" stroke="#da0014" stroke-dasharray="none" stroke-miterlimit="0" stroke-opacity="1" stroke-width="0" opacity="1"/><rect id="rect3215" width="7.114" height="1.167" x="30.561" y="25.523" fill="#242428" fill-opacity=".652" stroke="#da0014" stroke-dasharray="none" stroke-miterlimit="0" stroke-opacity="1" stroke-width="0" opacity="1"/><rect id="rect3217" width="7.114" height="1.167" x="30.616" y="4.4" fill="#242428" fill-opacity=".652" stroke="#da0014" stroke-dasharray="none" stroke-miterlimit="0" stroke-opacity="1" stroke-width="0" opacity="1"/></g></svg>