<svg xmlns="http://www.w3.org/2000/svg" xmlns:svg="http://www.w3.org/2000/svg" id="svg2" width="37.87" height="36.044" version="1.0"><metadata id="metadata7"/><g id="layer1" transform="translate(-2.8543262,1.0590396)"><g id="g2399" fill="#00f"><path id="path2411" fill="#e9e9ff" fill-rule="evenodd" stroke="none" stroke-linecap="butt" stroke-linejoin="round" stroke-opacity="1" stroke-width="1" d="M 18.829046,-995.52712 L 39.62156,-1002.2967 L 39.62156,-983.4547 L 18.829046,-979.76589 L 18.829046,-995.52712 z"/><path id="path2401" fill="#353564" fill-rule="evenodd" stroke="none" stroke-linecap="butt" stroke-linejoin="round" stroke-opacity="1" stroke-width="1" d="M 1.751118,-1004.5035 L 1.751118,-984.65723 L 18.829046,-979.76589 L 18.829046,-995.52712 L 1.751118,-1004.5035 z"/><path id="path2403" fill="#4d4d9f" fill-rule="evenodd" stroke="none" stroke-linecap="butt" stroke-linejoin="round" stroke-opacity="1" stroke-width="1" d="M 1.751118,-1004.5035 L 24.902271,-1015.8097 L 39.62156,-1002.2967 L 18.829046,-995.52712 L 1.751118,-1004.5035 z"/><path id="path2409" fill="#afafde" fill-rule="evenodd" stroke="none" stroke-linecap="butt" stroke-linejoin="round" stroke-opacity="1" stroke-width="1" d="M 1.751118,-984.65723 L 24.902271,-990.81812 L 39.62156,-983.4547 L 18.829046,-979.76589 L 1.751118,-984.65723 z"/><path id="path2407" fill="#d7d7ff" fill-rule="evenodd" stroke="none" stroke-linecap="butt" stroke-linejoin="round" stroke-opacity="1" stroke-width="1" d="M 24.902271,-1015.8097 L 24.902271,-990.81812 L 39.62156,-983.4547 L 39.62156,-1002.2967 L 24.902271,-1015.8097 z"/><path id="path2405" fill="#8686bf" fill-rule="evenodd" stroke="none" stroke-linecap="butt" stroke-linejoin="round" stroke-opacity="1" stroke-width="1" d="M 1.751118,-1004.5035 L 24.902271,-1015.8097 L 24.902271,-990.81812 L 1.751118,-984.65723 L 1.751118,-1004.5035 z"/></g><path id="path2867" fill="navy" stroke="red" d="M 30.644566,30.644566 A 0,1.6051915 0 1 1 30.644566,30.644566 A 0,1.6051915 0 1 1 30.644566,30.644566 z" transform="translate(2.8543262,-1.0590396)"/><path id="path3181" fill="#000" fill-opacity=".383" stroke="#000014" stroke-opacity="1" d="M 20.949093,18.749001 A 9.1350079,13.754222 0 1 1 2.6790771,18.749001 A 9.1350079,13.754222 0 1 1 20.949093,18.749001 z" opacity="1" transform="matrix(1.8923461,0,0,1.1948357,-0.6238361,-5.6863684)"/><text id="text3183" x="7.666" y="28.865" fill="#000" fill-opacity="1" stroke="none" stroke-linecap="butt" stroke-linejoin="miter" stroke-opacity="1" stroke-width="1" font-family="Bitstream Vera Sans" font-size="17.993" font-style="normal" font-weight="bold" transform="scale(1.104383,0.905483)" xml:space="preserve" style="line-height:125%;-inkscape-font-specification:Sans Bold"><tspan font-stretch="normal" style="text-align:start;line-height:125%;-inkscape-font-specification:Bitstream Vera Sans Bold" id="tspan3185" x="7.666" y="28.865" fill="#fff" fill-opacity="1" font-family="Bitstream Vera Sans" font-size="30.45" font-style="normal" font-variant="normal" font-weight="bold" text-anchor="start" writing-mode="lr-tb">U</tspan></text></g></svg>