<svg xmlns="http://www.w3.org/2000/svg" xmlns:svg="http://www.w3.org/2000/svg" id="svg2" width="18.677" height="17.794" version="1.0"><metadata id="metadata7"/><g id="layer1" transform="translate(-3.9376565,0.456856)"><g id="g2399" fill="#00f"><path id="path2411" fill="#e9e9ff" fill-rule="evenodd" stroke="none" stroke-linecap="butt" stroke-linejoin="round" stroke-opacity="1" stroke-width="1" d="M 17.745715,-1013.1745 L 38.53823,-1019.9441 L 38.53823,-1001.1021 L 17.745715,-997.41329 L 17.745715,-1013.1745 z"/><path id="path2401" fill="#353564" fill-rule="evenodd" stroke="none" stroke-linecap="butt" stroke-linejoin="round" stroke-opacity="1" stroke-width="1" d="M 0.66778774,-1022.1509 L 0.66778774,-1002.3046 L 17.745715,-997.41329 L 17.745715,-1013.1745 L 0.66778774,-1022.1509 z"/><path id="path2403" fill="#4d4d9f" fill-rule="evenodd" stroke="none" stroke-linecap="butt" stroke-linejoin="round" stroke-opacity="1" stroke-width="1" d="M 0.66778774,-1022.1509 L 23.818941,-1033.4571 L 38.53823,-1019.9441 L 17.745715,-1013.1745 L 0.66778774,-1022.1509 z"/><path id="path2409" fill="#afafde" fill-rule="evenodd" stroke="none" stroke-linecap="butt" stroke-linejoin="round" stroke-opacity="1" stroke-width="1" d="M 0.66778774,-1002.3046 L 23.818941,-1008.4655 L 38.53823,-1001.1021 L 17.745715,-997.41329 L 0.66778774,-1002.3046 z"/><path id="path2407" fill="#d7d7ff" fill-rule="evenodd" stroke="none" stroke-linecap="butt" stroke-linejoin="round" stroke-opacity="1" stroke-width="1" d="M 23.818941,-1033.4571 L 23.818941,-1008.4655 L 38.53823,-1001.1021 L 38.53823,-1019.9441 L 23.818941,-1033.4571 z"/><path id="path2405" fill="#8686bf" fill-rule="evenodd" stroke="none" stroke-linecap="butt" stroke-linejoin="round" stroke-opacity="1" stroke-width="1" d="M 0.66778774,-1022.1509 L 23.818941,-1033.4571 L 23.818941,-1008.4655 L 0.66778774,-1002.3046 L 0.66778774,-1022.1509 z"/></g><path id="path2867" fill="navy" stroke="red" d="M 30.644566,30.644566 A 0,1.6051915 0 1 1 30.644566,30.644566 A 0,1.6051915 0 1 1 30.644566,30.644566 z" transform="translate(2.8543262,-1.0590396)"/><path id="path3181" fill="#dc0014" fill-opacity="1" stroke="#dc0014" stroke-opacity="1" d="M 20.949093,18.749001 A 9.1350079,13.754222 0 1 1 2.6790771,18.749001 A 9.1350079,13.754222 0 1 1 20.949093,18.749001 z" opacity="1" transform="matrix(0.9796681,0,0,0.6185668,1.7022769,-3.1572334)"/><text id="text3183" x="5.803" y="14.708" fill="#000" fill-opacity="1" stroke="none" stroke-linecap="butt" stroke-linejoin="miter" stroke-opacity="1" stroke-width="1" font-family="Bitstream Vera Sans" font-size="9.315" font-style="normal" font-weight="bold" transform="scale(1.104383,0.905483)" xml:space="preserve" style="line-height:125%;-inkscape-font-specification:Sans Bold"><tspan font-stretch="normal" style="text-align:start;line-height:125%;-inkscape-font-specification:Bitstream Vera Sans Bold" id="tspan3185" x="5.803" y="14.708" fill="#fff" fill-opacity="1" font-family="Bitstream Vera Sans" font-size="15.764" font-style="normal" font-variant="normal" font-weight="bold" text-anchor="start" writing-mode="lr-tb">U</tspan></text></g></svg>