<svg xmlns="http://www.w3.org/2000/svg" xmlns:svg="http://www.w3.org/2000/svg" xmlns:xlink="http://www.w3.org/1999/xlink" id="svg2" width="37.87" height="36.044" version="1.0"><defs id="defs4"><linearGradient id="linearGradient3214"><stop id="stop3216" offset="0" stop-color="#00f" stop-opacity="1"/><stop id="stop3218" offset="1" stop-color="#00f" stop-opacity="0"/></linearGradient><radialGradient id="radialGradient3220" cx="26.682" cy="-79.973" r="10.55" fx="26.682" fy="-79.973" gradientTransform="matrix(1,0,0,15.310929,0,1144.4928)" gradientUnits="userSpaceOnUse" xlink:href="#linearGradient3214"/></defs><metadata id="metadata7"/><g id="layer1" transform="translate(-2.8543262,1.0590396)"><g id="g2399" fill="#00f"><path id="path2411" fill="#e9e9ff" fill-rule="evenodd" stroke="none" stroke-linecap="butt" stroke-linejoin="round" stroke-opacity="1" stroke-width="1" d="M 18.829046,-995.52712 L 39.62156,-1002.2967 L 39.62156,-983.4547 L 18.829046,-979.76589 L 18.829046,-995.52712 z"/><path id="path2401" fill="#353564" fill-rule="evenodd" stroke="none" stroke-linecap="butt" stroke-linejoin="round" stroke-opacity="1" stroke-width="1" d="M 1.751118,-1004.5035 L 1.751118,-984.65723 L 18.829046,-979.76589 L 18.829046,-995.52712 L 1.751118,-1004.5035 z"/><path id="path2403" fill="#4d4d9f" fill-rule="evenodd" stroke="none" stroke-linecap="butt" stroke-linejoin="round" stroke-opacity="1" stroke-width="1" d="M 1.751118,-1004.5035 L 24.902271,-1015.8097 L 39.62156,-1002.2967 L 18.829046,-995.52712 L 1.751118,-1004.5035 z"/><path id="path2409" fill="#afafde" fill-rule="evenodd" stroke="none" stroke-linecap="butt" stroke-linejoin="round" stroke-opacity="1" stroke-width="1" d="M 1.751118,-984.65723 L 24.902271,-990.81812 L 39.62156,-983.4547 L 18.829046,-979.76589 L 1.751118,-984.65723 z"/><path id="path2407" fill="#d7d7ff" fill-rule="evenodd" stroke="none" stroke-linecap="butt" stroke-linejoin="round" stroke-opacity="1" stroke-width="1" d="M 24.902271,-1015.8097 L 24.902271,-990.81812 L 39.62156,-983.4547 L 39.62156,-1002.2967 L 24.902271,-1015.8097 z"/><path id="path2405" fill="#8686bf" fill-rule="evenodd" stroke="none" stroke-linecap="butt" stroke-linejoin="round" stroke-opacity="1" stroke-width="1" d="M 1.751118,-1004.5035 L 24.902271,-1015.8097 L 24.902271,-990.81812 L 1.751118,-984.65723 L 1.751118,-1004.5035 z"/></g><path id="path2867" fill="navy" stroke="red" d="M 30.644566,30.644566 A 0,1.6051915 0 1 1 30.644566,30.644566 A 0,1.6051915 0 1 1 30.644566,30.644566 z" transform="translate(2.8543262,-1.0590396)"/><rect id="rect3162" width="0" height="1.167" x="74.714" y="-59.1" fill="#00f" fill-rule="evenodd" stroke="#000" stroke-linecap="butt" stroke-linejoin="miter" stroke-opacity="1" stroke-width="1" transform="translate(2.8543262,-1.0590396)"/><path id="path2394" fill="#e70000" fill-opacity="1" stroke="#009500" stroke-dasharray="none" stroke-miterlimit="0" stroke-opacity=".667" stroke-width=".6" d="M 17.511181,7.4422517 A 1.459265,1.459265 0 1 1 14.592651,7.4422517 A 1.459265,1.459265 0 1 1 17.511181,7.4422517 z" opacity=".329" transform="matrix(0.6208897,0,0,0.2856037,7.6715954,-0.1475816)"/><path id="path2396" fill="#e700d4" fill-opacity=".532" stroke="#009500" stroke-dasharray="none" stroke-miterlimit="0" stroke-opacity=".667" stroke-width=".6" d="M 6.1289132,14.008945 A 1.459265,1.6051915 0 1 1 3.2103832,14.008945 A 1.459265,1.6051915 0 1 1 6.1289132,14.008945 z" opacity=".329" transform="matrix(0.8867776,0,0,0.4336105,3.1012269,0.2387925)"/><path id="path2398" fill="#2eef00" fill-opacity=".532" stroke="#009500" stroke-dasharray="none" stroke-miterlimit="0" stroke-opacity=".667" stroke-width=".6" d="M 32.103831,13.425239 A 1.459265,1.6051915 0 1 1 29.185301,13.425239 A 1.459265,1.6051915 0 1 1 32.103831,13.425239 z" opacity=".329" transform="matrix(0.8867776,0,0,0.4336105,4.1364616,-0.1408589)"/><path id="path2400" fill="#e7ee00" fill-opacity=".532" stroke="#009500" stroke-dasharray="none" stroke-miterlimit="0" stroke-opacity=".667" stroke-width=".6" d="M 23.640093,23.202314 A 1.459265,1.7511181 0 1 1 20.721563,23.202314 A 1.459265,1.7511181 0 1 1 23.640093,23.202314 z" opacity=".329" transform="matrix(0.8867776,0,0,0.4336105,0.2543308,1.7573986)"/><path id="path2402" fill="#e7ee00" fill-opacity=".532" stroke="#009500" stroke-dasharray="none" stroke-miterlimit="0" stroke-opacity=".667" stroke-width=".6" d="M 11.67412,7.8800311 A 1.3133385,1.3133385 0 1 1 9.0474432,7.8800311 A 1.3133385,1.3133385 0 1 1 11.67412,7.8800311 z" opacity=".329" transform="matrix(0.8867776,0,0,0.4336105,3.1012269,0.2387925)"/><path id="path2404" fill="#00f" fill-opacity=".532" stroke="#009500" stroke-dasharray="none" stroke-miterlimit="0" stroke-opacity=".667" stroke-width=".6" d="M 31.811978,23.494167 A 1.7511181,1.7511181 0 1 1 28.309742,23.494167 A 1.7511181,1.7511181 0 1 1 31.811978,23.494167 z" opacity=".329" transform="matrix(0.8867776,0,0,0.4336105,3.1012269,0.2387925)"/><path id="path2406" fill="#e76f00" fill-opacity=".532" stroke="#009500" stroke-dasharray="none" stroke-miterlimit="0" stroke-opacity=".667" stroke-width=".6" d="M 20.721563,14.008945 A 1.6051915,1.6051915 0 1 1 17.51118,14.008945 A 1.6051915,1.6051915 0 1 1 20.721563,14.008945 z" opacity=".329" transform="matrix(0.8867776,0,0,0.4336105,3.1012269,0.2387925)"/><path id="path2408" fill="#e7ee00" fill-opacity=".532" stroke="#009500" stroke-dasharray="none" stroke-miterlimit="0" stroke-opacity=".667" stroke-width=".6" d="M 12.257826,24.515652 A 1.7511181,1.6051915 0 1 1 8.7555901,24.515652 A 1.7511181,1.6051915 0 1 1 12.257826,24.515652 z" opacity=".329" transform="matrix(0.8867776,0,0,0.4336105,0.241325,2.1434096)"/><path id="path3182" fill="none" fill-rule="evenodd" stroke="#00cfeb" stroke-linecap="butt" stroke-linejoin="miter" stroke-opacity=".376" stroke-width=".61" d="M 9.1138379,5.1038469 C 20.091026,5.6692505 20.987122,5.7399257 20.987122,5.7399257 L 14.938469,3.6903381 L 24.347486,2.0648031 L 35.10065,5.1745222 L 35.996748,8.1428902 L 22.779316,9.2030221 L 11.130056,10.263153 L 8.217741,5.5985747 L 21.211148,9.0616709 L 35.996748,5.1038469 L 28.1559,1.9941277 L 22.107245,5.315873" opacity=".329"/><rect id="rect3248" width="32.813" height="15.684" x="5.95" y="17.65" fill="#000" fill-opacity="1" stroke="#29e6ff" stroke-dasharray="none" stroke-miterlimit="0" stroke-opacity=".376" stroke-width="0" opacity=".329"/><text id="text3250" x="9.252" y="29.206" fill="#000" fill-opacity="1" stroke="none" stroke-linecap="butt" stroke-linejoin="miter" stroke-opacity="1" stroke-width="1" font-family="Bitstream Vera Sans" font-size="13" font-style="normal" font-weight="bold" opacity=".329" xml:space="preserve" style="-inkscape-font-specification:Sans Bold"><tspan id="tspan3252" x="9.252" y="29.206" fill="#fff" fill-opacity="1">net</tspan></text></g></svg>